<svg width="48" height="48" viewBox="0 0 48 48" fill="none" xmlns="http://www.w3.org/2000/svg">
<path d="M11.6941 30.6005H0.617742C0.617742 30.6005 -0.0447251 26.6198 0.00240373 24.0005C0.0453918 21.6113 0.617742 18.0005 0.617742 18.0005H11.6941V30.6005Z" fill="#FD2055"/>
<path d="M12.3095 15.0002H1.23315C1.23315 15.0002 3.34083 10.2048 6.46366 7.46105C12.207 2.41485 17.2324 1.2002 17.2324 1.2002C17.2324 1.2002 14.6472 5.65779 13.6428 8.71323C12.7789 11.341 12.3095 15.0002 12.3095 15.0002Z" fill="#FD2055"/>
<path d="M12.3095 33.6008H1.23315C1.23315 33.6008 3.34083 38.1876 6.46366 40.8121C12.207 45.6389 17.2324 46.8008 17.2324 46.8008C17.2324 46.8008 14.6472 42.537 13.6428 39.6144C12.7789 37.1009 12.3095 33.6008 12.3095 33.6008Z" fill="#FD2055"/>
<path d="M36.3075 30.5977H47.3823C47.3823 30.5977 48.0447 26.6176 47.9976 23.9987C47.9546 21.6098 47.3823 17.9995 47.3823 17.9995H36.3075V30.5977Z" fill="#FD2055"/>
<path d="M35.6921 15.0002H46.767C46.767 15.0002 44.6596 10.2055 41.5372 7.46213C35.7947 2.41663 30.77 1.20215 30.77 1.20215C30.77 1.20215 33.3548 5.65912 34.3591 8.71413C35.2228 11.3415 35.6921 15.0002 35.6921 15.0002Z" fill="#FD2055"/>
<path d="M35.6921 33.5973H46.767C46.767 33.5973 44.6596 38.1835 41.5372 40.8076C35.7947 45.6337 30.77 46.7954 30.77 46.7954C30.77 46.7954 33.3548 42.5322 34.3591 39.61C35.2228 37.0969 35.6921 33.5973 35.6921 33.5973Z" fill="#FD2055"/>
<path d="M14.7709 30.6V18H33.2315V30.6H14.7709Z" fill="#FD2055"/>
<path d="M15.4317 33.5999L32.6616 33.5999C32.6616 33.5999 32.8892 38.7812 30.2002 43.1999C28.466 46.0497 26.1553 48.0144 24.0012 47.9998C22.1551 47.9873 19.6944 46.0099 17.8932 43.1999C14.8164 38.3999 15.4317 33.5999 15.4317 33.5999Z" fill="#FD2055"/>
<path d="M32.6161 14.9999L15.3862 14.9999C15.3862 14.9999 15.1587 9.21872 17.8476 4.80008C19.5819 1.95028 21.8925 -0.0145131 24.0467 8.07548e-05C25.8928 0.0125873 28.3535 1.99006 30.1547 4.80008C33.2315 9.60007 32.6161 14.9999 32.6161 14.9999Z" fill="#FD2055"/>
</svg>
